<svg xmlns="http://www.w3.org/2000/svg" viewBox="0 0 64 64" fill="none">
  <!-- 外側の円（意識・オーラ） -->
  <circle cx="32" cy="32" r="30" stroke="#7B5EA7" stroke-width="1.5" stroke-dasharray="4 3" opacity="0.4"/>
  <!-- 中間の円（思考ループ） -->
  <circle cx="32" cy="32" r="22" fill="#F0EBF8"/>
  <circle cx="32" cy="32" r="22" stroke="#7B5EA7" stroke-width="2" opacity="0.6"/>
  <!-- コア（心） -->
  <circle cx="32" cy="32" r="12" fill="#7B5EA7"/>
  <!-- 心拍線 -->
  <path d="M24 32h3l2-4 3 8 2-6 2 4 2-2h4" stroke="white" stroke-width="1.8" stroke-linecap="round" stroke-linejoin="round"/>
  <!-- ノード（記憶・感情・思考） -->
  <circle cx="32" cy="10" r="3" fill="#9B59B6" opacity="0.8"/>
  <circle cx="50" cy="21" r="3" fill="#5B76C8" opacity="0.8"/>
  <circle cx="50" cy="43" r="3" fill="#40B870" opacity="0.8"/>
  <circle cx="32" cy="54" r="3" fill="#E07040" opacity="0.8"/>
  <circle cx="14" cy="43" r="3" fill="#C85898" opacity="0.8"/>
  <circle cx="14" cy="21" r="3" fill="#30B8A8" opacity="0.8"/>
  <!-- ノード接続線 -->
  <line x1="32" y1="13" x2="32" y2="20" stroke="#7B5EA7" stroke-width="1" opacity="0.5"/>
  <line x1="47" y1="22" x2="42" y2="25" stroke="#7B5EA7" stroke-width="1" opacity="0.5"/>
  <line x1="47" y1="42" x2="42" y2="39" stroke="#7B5EA7" stroke-width="1" opacity="0.5"/>
  <line x1="32" y1="51" x2="32" y2="44" stroke="#7B5EA7" stroke-width="1" opacity="0.5"/>
  <line x1="17" y1="42" x2="22" y2="39" stroke="#7B5EA7" stroke-width="1" opacity="0.5"/>
  <line x1="17" y1="22" x2="22" y2="25" stroke="#7B5EA7" stroke-width="1" opacity="0.5"/>
</svg>
